{
 "cells": [
  {
   "cell_type": "markdown",
   "metadata": {},
   "source": [
    "# Attentive Music\n",
    "\n",
    "I plan to use a Transformer architecture to generate musical MIDI sequences."
   ]
  },
  {
   "cell_type": "code",
   "execution_count": 1,
   "metadata": {},
   "outputs": [],
   "source": [
    "from mido import MidiFile\n",
    "import os"
   ]
  },
  {
   "cell_type": "markdown",
   "metadata": {},
   "source": [
    "I've found a [dataset](https://github.com/jukedeck/nottingham-dataset) of MIDI files cleaned by Jukedeck."
   ]
  },
  {
   "cell_type": "code",
   "execution_count": 2,
   "metadata": {},
   "outputs": [
    {
     "data": {
      "text/plain": [
       "['waltzes7.mid',\n",
       " 'reelsa-c79.mid',\n",
       " 'reelsr-t57.mid',\n",
       " 'jigs211.mid',\n",
       " 'morris29.mid',\n",
       " 'reelsu-z8.mid',\n",
       " 'jigs156.mid',\n",
       " 'ashover5.mid',\n",
       " 'reelsa-c32.mid',\n",
       " 'morris10.mid']"
      ]
     },
     "execution_count": 2,
     "metadata": {},
     "output_type": "execute_result"
    }
   ],
   "source": [
    "PATH=\"../nottingham-dataset/MIDI\"\n",
    "files = os.listdir(PATH); files[:10]"
   ]
  },
  {
   "cell_type": "code",
   "execution_count": 3,
   "metadata": {},
   "outputs": [],
   "source": [
    "mid = MidiFile(PATH+'/'+files[0])"
   ]
  },
  {
   "cell_type": "code",
   "execution_count": 7,
   "metadata": {},
   "outputs": [
    {
     "name": "stdout",
     "output_type": "stream",
     "text": [
      "=== Track 0\n",
      "<meta message track_name name='' time=0>\n",
      "<message pitchwheel channel=0 pitch=0 time=0>\n",
      "<meta message key_signature key='D' time=0>\n",
      "<meta message time_signature numerator=3 denominator=4 clocks_per_click=24 notated_32nd_notes_per_beat=8 time=0>\n",
      "<message note_on channel=0 note=69 velocity=90 time=2048>\n",
      "<message note_off channel=0 note=69 velocity=0 time=1024>\n",
      "<message note_on channel=0 note=78 velocity=90 time=0>\n",
      "<message note_off channel=0 note=78 velocity=0 time=1536>\n",
      "<message note_on channel=0 note=76 velocity=90 time=0>\n",
      "<message note_off channel=0 note=76 velocity=0 time=512>\n",
      "<message note_on channel=0 note=74 velocity=90 time=0>\n",
      "<message note_off channel=0 note=74 velocity=0 time=1024>\n",
      "<message note_on channel=0 note=69 velocity=90 time=0>\n",
      "<message note_off channel=0 note=69 velocity=0 time=1024>\n",
      "<message note_on channel=0 note=66 velocity=90 time=0>\n",
      "<message note_off channel=0 note=66 velocity=0 time=1024>\n",
      "<message note_on channel=0 note=69 velocity=90 time=0>\n",
      "<message note_off channel=0 note=69 velocity=0 time=1024>\n",
      "<message note_on channel=0 note=71 velocity=90 time=0>\n",
      "<message note_off channel=0 note=71 velocity=0 time=1024>\n",
      "<message note_on channel=0 note=67 velocity=90 time=0>\n",
      "<message note_off channel=0 note=67 velocity=0 time=1024>\n",
      "<message note_on channel=0 note=71 velocity=90 time=0>\n",
      "<message note_off channel=0 note=71 velocity=0 time=1024>\n",
      "<message note_on channel=0 note=69 velocity=90 time=0>\n",
      "<message note_off channel=0 note=69 velocity=0 time=1024>\n",
      "<message note_on channel=0 note=66 velocity=90 time=0>\n",
      "<message note_off channel=0 note=66 velocity=0 time=1024>\n",
      "<message note_on channel=0 note=69 velocity=90 time=0>\n",
      "<message note_off channel=0 note=69 velocity=0 time=1024>\n",
      "<message note_on channel=0 note=78 velocity=90 time=0>\n",
      "<message note_off channel=0 note=78 velocity=0 time=1536>\n",
      "<message note_on channel=0 note=76 velocity=90 time=0>\n",
      "<message note_off channel=0 note=76 velocity=0 time=512>\n",
      "<message note_on channel=0 note=74 velocity=90 time=0>\n",
      "<message note_off channel=0 note=74 velocity=0 time=1024>\n",
      "<message note_on channel=0 note=69 velocity=90 time=0>\n",
      "<message note_off channel=0 note=69 velocity=0 time=1024>\n",
      "<message note_on channel=0 note=66 velocity=90 time=0>\n",
      "<message note_off channel=0 note=66 velocity=0 time=1024>\n",
      "<message note_on channel=0 note=69 velocity=90 time=0>\n",
      "<message note_off channel=0 note=69 velocity=0 time=1024>\n",
      "<message note_on channel=0 note=71 velocity=90 time=0>\n",
      "<message note_off channel=0 note=71 velocity=0 time=1024>\n",
      "<message note_on channel=0 note=76 velocity=90 time=0>\n",
      "<message note_off channel=0 note=76 velocity=0 time=1024>\n",
      "<message note_on channel=0 note=73 velocity=90 time=0>\n",
      "<message note_off channel=0 note=73 velocity=0 time=1024>\n",
      "<message note_on channel=0 note=74 velocity=90 time=0>\n",
      "<message note_off channel=0 note=74 velocity=0 time=2048>\n",
      "<message note_on channel=0 note=69 velocity=90 time=0>\n",
      "<message note_off channel=0 note=69 velocity=0 time=1024>\n",
      "<message note_on channel=0 note=78 velocity=90 time=0>\n",
      "<message note_off channel=0 note=78 velocity=0 time=1536>\n",
      "<message note_on channel=0 note=76 velocity=90 time=0>\n",
      "<message note_off channel=0 note=76 velocity=0 time=512>\n",
      "<message note_on channel=0 note=74 velocity=90 time=0>\n",
      "<message note_off channel=0 note=74 velocity=0 time=1024>\n",
      "<message note_on channel=0 note=69 velocity=90 time=0>\n",
      "<message note_off channel=0 note=69 velocity=0 time=1024>\n",
      "<message note_on channel=0 note=66 velocity=90 time=0>\n",
      "<message note_off channel=0 note=66 velocity=0 time=1024>\n",
      "<message note_on channel=0 note=69 velocity=90 time=0>\n",
      "<message note_off channel=0 note=69 velocity=0 time=1024>\n",
      "<message note_on channel=0 note=71 velocity=90 time=0>\n",
      "<message note_off channel=0 note=71 velocity=0 time=1024>\n",
      "<message note_on channel=0 note=67 velocity=90 time=0>\n",
      "<message note_off channel=0 note=67 velocity=0 time=1024>\n",
      "<message note_on channel=0 note=71 velocity=90 time=0>\n",
      "<message note_off channel=0 note=71 velocity=0 time=1024>\n",
      "<message note_on channel=0 note=69 velocity=90 time=0>\n",
      "<message note_off channel=0 note=69 velocity=0 time=1024>\n",
      "<message note_on channel=0 note=66 velocity=90 time=0>\n",
      "<message note_off channel=0 note=66 velocity=0 time=1024>\n",
      "<message note_on channel=0 note=69 velocity=90 time=0>\n",
      "<message note_off channel=0 note=69 velocity=0 time=1024>\n",
      "<message note_on channel=0 note=78 velocity=90 time=0>\n",
      "<message note_off channel=0 note=78 velocity=0 time=1536>\n",
      "<message note_on channel=0 note=76 velocity=90 time=0>\n",
      "<message note_off channel=0 note=76 velocity=0 time=512>\n",
      "<message note_on channel=0 note=74 velocity=90 time=0>\n",
      "<message note_off channel=0 note=74 velocity=0 time=1024>\n",
      "<message note_on channel=0 note=69 velocity=90 time=0>\n",
      "<message note_off channel=0 note=69 velocity=0 time=1024>\n",
      "<message note_on channel=0 note=66 velocity=90 time=0>\n",
      "<message note_off channel=0 note=66 velocity=0 time=1024>\n",
      "<message note_on channel=0 note=69 velocity=90 time=0>\n",
      "<message note_off channel=0 note=69 velocity=0 time=1024>\n",
      "<message note_on channel=0 note=71 velocity=90 time=0>\n",
      "<message note_off channel=0 note=71 velocity=0 time=1024>\n",
      "<message note_on channel=0 note=76 velocity=90 time=0>\n",
      "<message note_off channel=0 note=76 velocity=0 time=1024>\n",
      "<message note_on channel=0 note=73 velocity=90 time=0>\n",
      "<message note_off channel=0 note=73 velocity=0 time=1024>\n",
      "<message note_on channel=0 note=74 velocity=90 time=0>\n",
      "<message note_off channel=0 note=74 velocity=0 time=2048>\n",
      "<message note_on channel=0 note=69 velocity=90 time=0>\n",
      "<message note_off channel=0 note=69 velocity=0 time=1024>\n",
      "<message note_on channel=0 note=78 velocity=90 time=0>\n",
      "<message note_off channel=0 note=78 velocity=0 time=1536>\n",
      "<message note_on channel=0 note=76 velocity=90 time=0>\n",
      "<message note_off channel=0 note=76 velocity=0 time=512>\n",
      "<message note_on channel=0 note=74 velocity=90 time=0>\n",
      "<message note_off channel=0 note=74 velocity=0 time=1024>\n",
      "<message note_on channel=0 note=69 velocity=90 time=0>\n",
      "<message note_off channel=0 note=69 velocity=0 time=1024>\n",
      "<message note_on channel=0 note=66 velocity=90 time=0>\n",
      "<message note_off channel=0 note=66 velocity=0 time=1024>\n",
      "<message note_on channel=0 note=69 velocity=90 time=0>\n",
      "<message note_off channel=0 note=69 velocity=0 time=1024>\n",
      "<message note_on channel=0 note=71 velocity=90 time=0>\n",
      "<message note_off channel=0 note=71 velocity=0 time=1024>\n",
      "<message note_on channel=0 note=67 velocity=90 time=0>\n",
      "<message note_off channel=0 note=67 velocity=0 time=1024>\n",
      "<message note_on channel=0 note=71 velocity=90 time=0>\n",
      "<message note_off channel=0 note=71 velocity=0 time=1024>\n",
      "<message note_on channel=0 note=69 velocity=90 time=0>\n",
      "<message note_off channel=0 note=69 velocity=0 time=1024>\n",
      "<message note_on channel=0 note=66 velocity=90 time=0>\n",
      "<message note_off channel=0 note=66 velocity=0 time=1024>\n",
      "<message note_on channel=0 note=69 velocity=90 time=0>\n",
      "<message note_off channel=0 note=69 velocity=0 time=1024>\n",
      "<message note_on channel=0 note=78 velocity=90 time=0>\n",
      "<message note_off channel=0 note=78 velocity=0 time=1536>\n",
      "<message note_on channel=0 note=76 velocity=90 time=0>\n",
      "<message note_off channel=0 note=76 velocity=0 time=512>\n",
      "<message note_on channel=0 note=74 velocity=90 time=0>\n",
      "<message note_off channel=0 note=74 velocity=0 time=1024>\n",
      "<message note_on channel=0 note=69 velocity=90 time=0>\n",
      "<message note_off channel=0 note=69 velocity=0 time=1024>\n",
      "<message note_on channel=0 note=66 velocity=90 time=0>\n",
      "<message note_off channel=0 note=66 velocity=0 time=1024>\n",
      "<message note_on channel=0 note=69 velocity=90 time=0>\n",
      "<message note_off channel=0 note=69 velocity=0 time=1024>\n",
      "<message note_on channel=0 note=71 velocity=90 time=0>\n",
      "<message note_off channel=0 note=71 velocity=0 time=1024>\n",
      "<message note_on channel=0 note=76 velocity=90 time=0>\n",
      "<message note_off channel=0 note=76 velocity=0 time=1024>\n",
      "<message note_on channel=0 note=73 velocity=90 time=0>\n",
      "<message note_off channel=0 note=73 velocity=0 time=1024>\n",
      "<message note_on channel=0 note=74 velocity=90 time=0>\n",
      "<message note_off channel=0 note=74 velocity=0 time=2048>\n",
      "<message note_on channel=0 note=69 velocity=90 time=0>\n",
      "<message note_off channel=0 note=69 velocity=0 time=1024>\n",
      "<message note_on channel=0 note=78 velocity=90 time=0>\n",
      "<message note_off channel=0 note=78 velocity=0 time=1536>\n",
      "<message note_on channel=0 note=76 velocity=90 time=0>\n",
      "<message note_off channel=0 note=76 velocity=0 time=512>\n",
      "<message note_on channel=0 note=74 velocity=90 time=0>\n",
      "<message note_off channel=0 note=74 velocity=0 time=1024>\n",
      "<message note_on channel=0 note=69 velocity=90 time=0>\n",
      "<message note_off channel=0 note=69 velocity=0 time=1024>\n",
      "<message note_on channel=0 note=66 velocity=90 time=0>\n",
      "<message note_off channel=0 note=66 velocity=0 time=1024>\n",
      "<message note_on channel=0 note=69 velocity=90 time=0>\n",
      "<message note_off channel=0 note=69 velocity=0 time=1024>\n",
      "<message note_on channel=0 note=71 velocity=90 time=0>\n",
      "<message note_off channel=0 note=71 velocity=0 time=1024>\n",
      "<message note_on channel=0 note=67 velocity=90 time=0>\n",
      "<message note_off channel=0 note=67 velocity=0 time=1024>\n",
      "<message note_on channel=0 note=71 velocity=90 time=0>\n",
      "<message note_off channel=0 note=71 velocity=0 time=1024>\n",
      "<message note_on channel=0 note=69 velocity=90 time=0>\n",
      "<message note_off channel=0 note=69 velocity=0 time=1024>\n",
      "<message note_on channel=0 note=66 velocity=90 time=0>\n",
      "<message note_off channel=0 note=66 velocity=0 time=1024>\n",
      "<message note_on channel=0 note=69 velocity=90 time=0>\n",
      "<message note_off channel=0 note=69 velocity=0 time=1024>\n",
      "<message note_on channel=0 note=78 velocity=90 time=0>\n",
      "<message note_off channel=0 note=78 velocity=0 time=1536>\n",
      "<message note_on channel=0 note=76 velocity=90 time=0>\n",
      "<message note_off channel=0 note=76 velocity=0 time=512>\n",
      "<message note_on channel=0 note=74 velocity=90 time=0>\n",
      "<message note_off channel=0 note=74 velocity=0 time=1024>\n",
      "<message note_on channel=0 note=69 velocity=90 time=0>\n",
      "<message note_off channel=0 note=69 velocity=0 time=1024>\n",
      "<message note_on channel=0 note=66 velocity=90 time=0>\n",
      "<message note_off channel=0 note=66 velocity=0 time=1024>\n",
      "<message note_on channel=0 note=69 velocity=90 time=0>\n",
      "<message note_off channel=0 note=69 velocity=0 time=1024>\n",
      "<message note_on channel=0 note=71 velocity=90 time=0>\n",
      "<message note_off channel=0 note=71 velocity=0 time=1024>\n",
      "<message note_on channel=0 note=76 velocity=90 time=0>\n",
      "<message note_off channel=0 note=76 velocity=0 time=1024>\n",
      "<message note_on channel=0 note=73 velocity=90 time=0>\n",
      "<message note_off channel=0 note=73 velocity=0 time=1024>\n",
      "<message note_on channel=0 note=74 velocity=90 time=0>\n",
      "<message note_off channel=0 note=74 velocity=0 time=2048>\n",
      "<message note_on channel=0 note=69 velocity=90 time=0>\n",
      "<message note_off channel=0 note=69 velocity=0 time=1024>\n",
      "<message note_on channel=0 note=78 velocity=90 time=0>\n",
      "<message note_off channel=0 note=78 velocity=0 time=2048>\n",
      "<message note_on channel=0 note=81 velocity=90 time=0>\n",
      "<message note_off channel=0 note=81 velocity=0 time=1024>\n",
      "<message note_on channel=0 note=76 velocity=90 time=0>\n",
      "<message note_off channel=0 note=76 velocity=0 time=2048>\n",
      "<message note_on channel=0 note=81 velocity=90 time=0>\n",
      "<message note_off channel=0 note=81 velocity=0 time=1024>\n",
      "<message note_on channel=0 note=74 velocity=90 time=0>\n",
      "<message note_off channel=0 note=74 velocity=0 time=1536>\n",
      "<message note_on channel=0 note=76 velocity=90 time=0>\n",
      "<message note_off channel=0 note=76 velocity=0 time=512>\n",
      "<message note_on channel=0 note=74 velocity=90 time=0>\n",
      "<message note_off channel=0 note=74 velocity=0 time=1024>\n",
      "<message note_on channel=0 note=73 velocity=90 time=0>\n",
      "<message note_off channel=0 note=73 velocity=0 time=1024>\n",
      "<message note_on channel=0 note=71 velocity=90 time=0>\n",
      "<message note_off channel=0 note=71 velocity=0 time=1024>\n",
      "<message note_on channel=0 note=69 velocity=90 time=0>\n",
      "<message note_off channel=0 note=69 velocity=0 time=1024>\n",
      "<message note_on channel=0 note=78 velocity=90 time=0>\n",
      "<message note_off channel=0 note=78 velocity=0 time=2048>\n",
      "<message note_on channel=0 note=81 velocity=90 time=0>\n",
      "<message note_off channel=0 note=81 velocity=0 time=1024>\n",
      "<message note_on channel=0 note=76 velocity=90 time=0>\n",
      "<message note_off channel=0 note=76 velocity=0 time=2048>\n",
      "<message note_on channel=0 note=81 velocity=90 time=0>\n",
      "<message note_off channel=0 note=81 velocity=0 time=1024>\n",
      "<message note_on channel=0 note=80 velocity=90 time=0>\n",
      "<message note_off channel=0 note=80 velocity=0 time=1024>\n",
      "<message note_on channel=0 note=78 velocity=90 time=0>\n",
      "<message note_off channel=0 note=78 velocity=0 time=1024>\n",
      "<message note_on channel=0 note=79 velocity=90 time=0>\n",
      "<message note_off channel=0 note=79 velocity=0 time=1024>\n",
      "<message note_on channel=0 note=81 velocity=90 time=0>\n",
      "<message note_off channel=0 note=81 velocity=0 time=2048>\n",
      "<message note_on channel=0 note=81 velocity=90 time=0>\n",
      "<message note_off channel=0 note=81 velocity=0 time=1024>\n",
      "<message note_on channel=0 note=83 velocity=90 time=0>\n",
      "<message note_off channel=0 note=83 velocity=0 time=2048>\n",
      "<message note_on channel=0 note=83 velocity=90 time=0>\n",
      "<message note_off channel=0 note=83 velocity=0 time=1024>\n",
      "<message note_on channel=0 note=81 velocity=90 time=0>\n",
      "<message note_off channel=0 note=81 velocity=0 time=2048>\n",
      "<message note_on channel=0 note=81 velocity=90 time=0>\n",
      "<message note_off channel=0 note=81 velocity=0 time=1024>\n",
      "<message note_on channel=0 note=79 velocity=90 time=0>\n",
      "<message note_off channel=0 note=79 velocity=0 time=1024>\n",
      "<message note_on channel=0 note=79 velocity=90 time=0>\n",
      "<message note_off channel=0 note=79 velocity=0 time=1024>\n",
      "<message note_on channel=0 note=79 velocity=90 time=0>\n",
      "<message note_off channel=0 note=79 velocity=0 time=1024>\n",
      "<message note_on channel=0 note=78 velocity=90 time=0>\n",
      "<message note_off channel=0 note=78 velocity=0 time=1024>\n",
      "<message note_on channel=0 note=76 velocity=90 time=0>\n",
      "<message note_off channel=0 note=76 velocity=0 time=1024>\n",
      "<message note_on channel=0 note=74 velocity=90 time=0>\n",
      "<message note_off channel=0 note=74 velocity=0 time=1024>\n",
      "<message note_on channel=0 note=78 velocity=90 time=0>\n",
      "<message note_off channel=0 note=78 velocity=0 time=1536>\n",
      "<message note_on channel=0 note=76 velocity=90 time=0>\n",
      "<message note_off channel=0 note=76 velocity=0 time=512>\n",
      "<message note_on channel=0 note=74 velocity=90 time=0>\n",
      "<message note_off channel=0 note=74 velocity=0 time=1024>\n",
      "<message note_on channel=0 note=71 velocity=90 time=0>\n",
      "<message note_off channel=0 note=71 velocity=0 time=1024>\n",
      "<message note_on channel=0 note=79 velocity=90 time=0>\n",
      "<message note_off channel=0 note=79 velocity=0 time=1024>\n",
      "<message note_on channel=0 note=78 velocity=90 time=0>\n",
      "<message note_off channel=0 note=78 velocity=0 time=1024>\n",
      "<message note_on channel=0 note=76 velocity=90 time=0>\n",
      "<message note_off channel=0 note=76 velocity=0 time=1024>\n",
      "<message note_on channel=0 note=74 velocity=90 time=0>\n",
      "<message note_off channel=0 note=74 velocity=0 time=1024>\n",
      "<message note_on channel=0 note=73 velocity=90 time=0>\n",
      "<message note_off channel=0 note=73 velocity=0 time=1024>\n",
      "<message note_on channel=0 note=74 velocity=90 time=0>\n",
      "<message note_off channel=0 note=74 velocity=0 time=2048>\n",
      "<message note_on channel=0 note=69 velocity=90 time=0>\n",
      "<message note_off channel=0 note=69 velocity=0 time=1024>\n",
      "<message note_on channel=0 note=78 velocity=90 time=0>\n",
      "<message note_off channel=0 note=78 velocity=0 time=2048>\n",
      "<message note_on channel=0 note=81 velocity=90 time=0>\n",
      "<message note_off channel=0 note=81 velocity=0 time=1024>\n",
      "<message note_on channel=0 note=76 velocity=90 time=0>\n",
      "<message note_off channel=0 note=76 velocity=0 time=2048>\n",
      "<message note_on channel=0 note=81 velocity=90 time=0>\n",
      "<message note_off channel=0 note=81 velocity=0 time=1024>\n",
      "<message note_on channel=0 note=74 velocity=90 time=0>\n",
      "<message note_off channel=0 note=74 velocity=0 time=1536>\n",
      "<message note_on channel=0 note=76 velocity=90 time=0>\n",
      "<message note_off channel=0 note=76 velocity=0 time=512>\n",
      "<message note_on channel=0 note=74 velocity=90 time=0>\n",
      "<message note_off channel=0 note=74 velocity=0 time=1024>\n",
      "<message note_on channel=0 note=73 velocity=90 time=0>\n",
      "<message note_off channel=0 note=73 velocity=0 time=1024>\n",
      "<message note_on channel=0 note=71 velocity=90 time=0>\n",
      "<message note_off channel=0 note=71 velocity=0 time=1024>\n",
      "<message note_on channel=0 note=69 velocity=90 time=0>\n",
      "<message note_off channel=0 note=69 velocity=0 time=1024>\n",
      "<message note_on channel=0 note=78 velocity=90 time=0>\n",
      "<message note_off channel=0 note=78 velocity=0 time=2048>\n",
      "<message note_on channel=0 note=81 velocity=90 time=0>\n",
      "<message note_off channel=0 note=81 velocity=0 time=1024>\n",
      "<message note_on channel=0 note=76 velocity=90 time=0>\n",
      "<message note_off channel=0 note=76 velocity=0 time=2048>\n",
      "<message note_on channel=0 note=81 velocity=90 time=0>\n",
      "<message note_off channel=0 note=81 velocity=0 time=1024>\n",
      "<message note_on channel=0 note=80 velocity=90 time=0>\n",
      "<message note_off channel=0 note=80 velocity=0 time=1024>\n",
      "<message note_on channel=0 note=78 velocity=90 time=0>\n",
      "<message note_off channel=0 note=78 velocity=0 time=1024>\n",
      "<message note_on channel=0 note=79 velocity=90 time=0>\n",
      "<message note_off channel=0 note=79 velocity=0 time=1024>\n",
      "<message note_on channel=0 note=81 velocity=90 time=0>\n",
      "<message note_off channel=0 note=81 velocity=0 time=2048>\n",
      "<message note_on channel=0 note=81 velocity=90 time=0>\n",
      "<message note_off channel=0 note=81 velocity=0 time=1024>\n",
      "<message note_on channel=0 note=83 velocity=90 time=0>\n",
      "<message note_off channel=0 note=83 velocity=0 time=2048>\n",
      "<message note_on channel=0 note=83 velocity=90 time=0>\n",
      "<message note_off channel=0 note=83 velocity=0 time=1024>\n",
      "<message note_on channel=0 note=81 velocity=90 time=0>\n",
      "<message note_off channel=0 note=81 velocity=0 time=2048>\n",
      "<message note_on channel=0 note=81 velocity=90 time=0>\n",
      "<message note_off channel=0 note=81 velocity=0 time=1024>\n",
      "<message note_on channel=0 note=79 velocity=90 time=0>\n",
      "<message note_off channel=0 note=79 velocity=0 time=1024>\n",
      "<message note_on channel=0 note=79 velocity=90 time=0>\n",
      "<message note_off channel=0 note=79 velocity=0 time=1024>\n",
      "<message note_on channel=0 note=79 velocity=90 time=0>\n",
      "<message note_off channel=0 note=79 velocity=0 time=1024>\n",
      "<message note_on channel=0 note=78 velocity=90 time=0>\n",
      "<message note_off channel=0 note=78 velocity=0 time=1024>\n",
      "<message note_on channel=0 note=76 velocity=90 time=0>\n",
      "<message note_off channel=0 note=76 velocity=0 time=1024>\n",
      "<message note_on channel=0 note=74 velocity=90 time=0>\n",
      "<message note_off channel=0 note=74 velocity=0 time=1024>\n",
      "<message note_on channel=0 note=78 velocity=90 time=0>\n",
      "<message note_off channel=0 note=78 velocity=0 time=1536>\n",
      "<message note_on channel=0 note=76 velocity=90 time=0>\n",
      "<message note_off channel=0 note=76 velocity=0 time=512>\n",
      "<message note_on channel=0 note=74 velocity=90 time=0>\n",
      "<message note_off channel=0 note=74 velocity=0 time=1024>\n",
      "<message note_on channel=0 note=71 velocity=90 time=0>\n",
      "<message note_off channel=0 note=71 velocity=0 time=1024>\n",
      "<message note_on channel=0 note=79 velocity=90 time=0>\n",
      "<message note_off channel=0 note=79 velocity=0 time=1024>\n",
      "<message note_on channel=0 note=78 velocity=90 time=0>\n",
      "<message note_off channel=0 note=78 velocity=0 time=1024>\n",
      "<message note_on channel=0 note=76 velocity=90 time=0>\n",
      "<message note_off channel=0 note=76 velocity=0 time=1024>\n",
      "<message note_on channel=0 note=74 velocity=90 time=0>\n",
      "<message note_off channel=0 note=74 velocity=0 time=1024>\n",
      "<message note_on channel=0 note=73 velocity=90 time=0>\n",
      "<message note_off channel=0 note=73 velocity=0 time=1024>\n",
      "<message note_on channel=0 note=74 velocity=90 time=0>\n",
      "<message note_off channel=0 note=74 velocity=0 time=2048>\n",
      "<meta message end_of_track time=0>\n",
      "=== Track 1\n",
      "<meta message track_name name='' time=0>\n",
      "<message pitchwheel channel=0 pitch=0 time=0>\n",
      "<meta message key_signature key='D' time=0>\n",
      "<meta message time_signature numerator=3 denominator=4 clocks_per_click=24 notated_32nd_notes_per_beat=8 time=0>\n",
      "<message note_on channel=0 note=38 velocity=90 time=3072>\n",
      "<message note_on channel=0 note=42 velocity=90 time=0>\n",
      "<message note_on channel=0 note=45 velocity=90 time=0>\n",
      "<message note_off channel=0 note=38 velocity=0 time=3072>\n",
      "<message note_off channel=0 note=42 velocity=0 time=0>\n",
      "<message note_off channel=0 note=45 velocity=0 time=0>\n",
      "<message note_on channel=0 note=38 velocity=90 time=0>\n",
      "<message note_on channel=0 note=42 velocity=90 time=0>\n",
      "<message note_on channel=0 note=45 velocity=90 time=0>\n",
      "<message note_off channel=0 note=38 velocity=0 time=3072>\n",
      "<message note_off channel=0 note=42 velocity=0 time=0>\n",
      "<message note_off channel=0 note=45 velocity=0 time=0>\n",
      "<message note_on channel=0 note=43 velocity=90 time=0>\n",
      "<message note_on channel=0 note=47 velocity=90 time=0>\n",
      "<message note_on channel=0 note=50 velocity=90 time=0>\n",
      "<message note_off channel=0 note=43 velocity=0 time=3072>\n",
      "<message note_off channel=0 note=47 velocity=0 time=0>\n",
      "<message note_off channel=0 note=50 velocity=0 time=0>\n",
      "<message note_on channel=0 note=38 velocity=90 time=0>\n",
      "<message note_on channel=0 note=42 velocity=90 time=0>\n",
      "<message note_on channel=0 note=45 velocity=90 time=0>\n",
      "<message note_off channel=0 note=38 velocity=0 time=3072>\n",
      "<message note_off channel=0 note=42 velocity=0 time=0>\n",
      "<message note_off channel=0 note=45 velocity=0 time=0>\n",
      "<message note_on channel=0 note=38 velocity=90 time=0>\n",
      "<message note_on channel=0 note=42 velocity=90 time=0>\n",
      "<message note_on channel=0 note=45 velocity=90 time=0>\n",
      "<message note_off channel=0 note=38 velocity=0 time=3072>\n",
      "<message note_off channel=0 note=42 velocity=0 time=0>\n",
      "<message note_off channel=0 note=45 velocity=0 time=0>\n",
      "<message note_on channel=0 note=38 velocity=90 time=0>\n",
      "<message note_on channel=0 note=42 velocity=90 time=0>\n",
      "<message note_on channel=0 note=45 velocity=90 time=0>\n",
      "<message note_off channel=0 note=38 velocity=0 time=3072>\n",
      "<message note_off channel=0 note=42 velocity=0 time=0>\n",
      "<message note_off channel=0 note=45 velocity=0 time=0>\n",
      "<message note_on channel=0 note=40 velocity=90 time=0>\n",
      "<message note_on channel=0 note=43 velocity=90 time=0>\n",
      "<message note_on channel=0 note=47 velocity=90 time=0>\n",
      "<message note_off channel=0 note=40 velocity=0 time=2048>\n",
      "<message note_off channel=0 note=43 velocity=0 time=0>\n",
      "<message note_off channel=0 note=47 velocity=0 time=0>\n",
      "<message note_on channel=0 note=45 velocity=90 time=0>\n",
      "<message note_on channel=0 note=49 velocity=90 time=0>\n",
      "<message note_on channel=0 note=52 velocity=90 time=0>\n",
      "<message note_off channel=0 note=45 velocity=0 time=1024>\n",
      "<message note_off channel=0 note=49 velocity=0 time=0>\n",
      "<message note_off channel=0 note=52 velocity=0 time=0>\n",
      "<message note_on channel=0 note=38 velocity=90 time=0>\n",
      "<message note_on channel=0 note=42 velocity=90 time=0>\n",
      "<message note_on channel=0 note=45 velocity=90 time=0>\n",
      "<message note_off channel=0 note=38 velocity=0 time=3072>\n",
      "<message note_off channel=0 note=42 velocity=0 time=0>\n",
      "<message note_off channel=0 note=45 velocity=0 time=0>\n",
      "<message note_on channel=0 note=38 velocity=90 time=0>\n",
      "<message note_on channel=0 note=42 velocity=90 time=0>\n",
      "<message note_on channel=0 note=45 velocity=90 time=0>\n",
      "<message note_off channel=0 note=38 velocity=0 time=3072>\n",
      "<message note_off channel=0 note=42 velocity=0 time=0>\n",
      "<message note_off channel=0 note=45 velocity=0 time=0>\n",
      "<message note_on channel=0 note=38 velocity=90 time=0>\n",
      "<message note_on channel=0 note=42 velocity=90 time=0>\n",
      "<message note_on channel=0 note=45 velocity=90 time=0>\n",
      "<message note_off channel=0 note=38 velocity=0 time=3072>\n",
      "<message note_off channel=0 note=42 velocity=0 time=0>\n",
      "<message note_off channel=0 note=45 velocity=0 time=0>\n",
      "<message note_on channel=0 note=43 velocity=90 time=0>\n",
      "<message note_on channel=0 note=47 velocity=90 time=0>\n",
      "<message note_on channel=0 note=50 velocity=90 time=0>\n",
      "<message note_off channel=0 note=43 velocity=0 time=3072>\n",
      "<message note_off channel=0 note=47 velocity=0 time=0>\n",
      "<message note_off channel=0 note=50 velocity=0 time=0>\n",
      "<message note_on channel=0 note=38 velocity=90 time=0>\n",
      "<message note_on channel=0 note=42 velocity=90 time=0>\n",
      "<message note_on channel=0 note=45 velocity=90 time=0>\n",
      "<message note_off channel=0 note=38 velocity=0 time=3072>\n",
      "<message note_off channel=0 note=42 velocity=0 time=0>\n",
      "<message note_off channel=0 note=45 velocity=0 time=0>\n",
      "<message note_on channel=0 note=38 velocity=90 time=0>\n",
      "<message note_on channel=0 note=42 velocity=90 time=0>\n",
      "<message note_on channel=0 note=45 velocity=90 time=0>\n",
      "<message note_off channel=0 note=38 velocity=0 time=3072>\n",
      "<message note_off channel=0 note=42 velocity=0 time=0>\n",
      "<message note_off channel=0 note=45 velocity=0 time=0>\n",
      "<message note_on channel=0 note=38 velocity=90 time=0>\n",
      "<message note_on channel=0 note=42 velocity=90 time=0>\n",
      "<message note_on channel=0 note=45 velocity=90 time=0>\n",
      "<message note_off channel=0 note=38 velocity=0 time=3072>\n",
      "<message note_off channel=0 note=42 velocity=0 time=0>\n",
      "<message note_off channel=0 note=45 velocity=0 time=0>\n",
      "<message note_on channel=0 note=40 velocity=90 time=0>\n",
      "<message note_on channel=0 note=43 velocity=90 time=0>\n",
      "<message note_on channel=0 note=47 velocity=90 time=0>\n",
      "<message note_off channel=0 note=40 velocity=0 time=2048>\n",
      "<message note_off channel=0 note=43 velocity=0 time=0>\n",
      "<message note_off channel=0 note=47 velocity=0 time=0>\n",
      "<message note_on channel=0 note=45 velocity=90 time=0>\n",
      "<message note_on channel=0 note=49 velocity=90 time=0>\n",
      "<message note_on channel=0 note=52 velocity=90 time=0>\n",
      "<message note_off channel=0 note=45 velocity=0 time=1024>\n",
      "<message note_off channel=0 note=49 velocity=0 time=0>\n",
      "<message note_off channel=0 note=52 velocity=0 time=0>\n",
      "<message note_on channel=0 note=38 velocity=90 time=0>\n",
      "<message note_on channel=0 note=42 velocity=90 time=0>\n",
      "<message note_on channel=0 note=45 velocity=90 time=0>\n",
      "<message note_off channel=0 note=38 velocity=0 time=3072>\n",
      "<message note_off channel=0 note=42 velocity=0 time=0>\n",
      "<message note_off channel=0 note=45 velocity=0 time=0>\n",
      "<message note_on channel=0 note=38 velocity=90 time=0>\n",
      "<message note_on channel=0 note=42 velocity=90 time=0>\n",
      "<message note_on channel=0 note=45 velocity=90 time=0>\n",
      "<message note_off channel=0 note=38 velocity=0 time=3072>\n",
      "<message note_off channel=0 note=42 velocity=0 time=0>\n",
      "<message note_off channel=0 note=45 velocity=0 time=0>\n",
      "<message note_on channel=0 note=38 velocity=90 time=0>\n",
      "<message note_on channel=0 note=42 velocity=90 time=0>\n",
      "<message note_on channel=0 note=45 velocity=90 time=0>\n",
      "<message note_off channel=0 note=38 velocity=0 time=3072>\n",
      "<message note_off channel=0 note=42 velocity=0 time=0>\n",
      "<message note_off channel=0 note=45 velocity=0 time=0>\n",
      "<message note_on channel=0 note=43 velocity=90 time=0>\n",
      "<message note_on channel=0 note=47 velocity=90 time=0>\n",
      "<message note_on channel=0 note=50 velocity=90 time=0>\n",
      "<message note_off channel=0 note=43 velocity=0 time=3072>\n",
      "<message note_off channel=0 note=47 velocity=0 time=0>\n",
      "<message note_off channel=0 note=50 velocity=0 time=0>\n",
      "<message note_on channel=0 note=38 velocity=90 time=0>\n",
      "<message note_on channel=0 note=42 velocity=90 time=0>\n",
      "<message note_on channel=0 note=45 velocity=90 time=0>\n",
      "<message note_off channel=0 note=38 velocity=0 time=3072>\n",
      "<message note_off channel=0 note=42 velocity=0 time=0>\n",
      "<message note_off channel=0 note=45 velocity=0 time=0>\n",
      "<message note_on channel=0 note=38 velocity=90 time=0>\n",
      "<message note_on channel=0 note=42 velocity=90 time=0>\n",
      "<message note_on channel=0 note=45 velocity=90 time=0>\n",
      "<message note_off channel=0 note=38 velocity=0 time=3072>\n",
      "<message note_off channel=0 note=42 velocity=0 time=0>\n",
      "<message note_off channel=0 note=45 velocity=0 time=0>\n",
      "<message note_on channel=0 note=38 velocity=90 time=0>\n",
      "<message note_on channel=0 note=42 velocity=90 time=0>\n",
      "<message note_on channel=0 note=45 velocity=90 time=0>\n",
      "<message note_off channel=0 note=38 velocity=0 time=3072>\n",
      "<message note_off channel=0 note=42 velocity=0 time=0>\n",
      "<message note_off channel=0 note=45 velocity=0 time=0>\n",
      "<message note_on channel=0 note=40 velocity=90 time=0>\n",
      "<message note_on channel=0 note=43 velocity=90 time=0>\n",
      "<message note_on channel=0 note=47 velocity=90 time=0>\n",
      "<message note_off channel=0 note=40 velocity=0 time=2048>\n",
      "<message note_off channel=0 note=43 velocity=0 time=0>\n",
      "<message note_off channel=0 note=47 velocity=0 time=0>\n",
      "<message note_on channel=0 note=45 velocity=90 time=0>\n",
      "<message note_on channel=0 note=49 velocity=90 time=0>\n",
      "<message note_on channel=0 note=52 velocity=90 time=0>\n",
      "<message note_off channel=0 note=45 velocity=0 time=1024>\n",
      "<message note_off channel=0 note=49 velocity=0 time=0>\n",
      "<message note_off channel=0 note=52 velocity=0 time=0>\n",
      "<message note_on channel=0 note=38 velocity=90 time=0>\n",
      "<message note_on channel=0 note=42 velocity=90 time=0>\n",
      "<message note_on channel=0 note=45 velocity=90 time=0>\n",
      "<message note_off channel=0 note=38 velocity=0 time=3072>\n",
      "<message note_off channel=0 note=42 velocity=0 time=0>\n",
      "<message note_off channel=0 note=45 velocity=0 time=0>\n",
      "<message note_on channel=0 note=38 velocity=90 time=0>\n",
      "<message note_on channel=0 note=42 velocity=90 time=0>\n",
      "<message note_on channel=0 note=45 velocity=90 time=0>\n",
      "<message note_off channel=0 note=38 velocity=0 time=3072>\n",
      "<message note_off channel=0 note=42 velocity=0 time=0>\n",
      "<message note_off channel=0 note=45 velocity=0 time=0>\n",
      "<message note_on channel=0 note=38 velocity=90 time=0>\n",
      "<message note_on channel=0 note=42 velocity=90 time=0>\n",
      "<message note_on channel=0 note=45 velocity=90 time=0>\n",
      "<message note_off channel=0 note=38 velocity=0 time=3072>\n",
      "<message note_off channel=0 note=42 velocity=0 time=0>\n",
      "<message note_off channel=0 note=45 velocity=0 time=0>\n",
      "<message note_on channel=0 note=43 velocity=90 time=0>\n",
      "<message note_on channel=0 note=47 velocity=90 time=0>\n",
      "<message note_on channel=0 note=50 velocity=90 time=0>\n",
      "<message note_off channel=0 note=43 velocity=0 time=3072>\n",
      "<message note_off channel=0 note=47 velocity=0 time=0>\n",
      "<message note_off channel=0 note=50 velocity=0 time=0>\n",
      "<message note_on channel=0 note=38 velocity=90 time=0>\n",
      "<message note_on channel=0 note=42 velocity=90 time=0>\n",
      "<message note_on channel=0 note=45 velocity=90 time=0>\n",
      "<message note_off channel=0 note=38 velocity=0 time=3072>\n",
      "<message note_off channel=0 note=42 velocity=0 time=0>\n",
      "<message note_off channel=0 note=45 velocity=0 time=0>\n",
      "<message note_on channel=0 note=38 velocity=90 time=0>\n",
      "<message note_on channel=0 note=42 velocity=90 time=0>\n",
      "<message note_on channel=0 note=45 velocity=90 time=0>\n",
      "<message note_off channel=0 note=38 velocity=0 time=3072>\n",
      "<message note_off channel=0 note=42 velocity=0 time=0>\n",
      "<message note_off channel=0 note=45 velocity=0 time=0>\n",
      "<message note_on channel=0 note=38 velocity=90 time=0>\n",
      "<message note_on channel=0 note=42 velocity=90 time=0>\n",
      "<message note_on channel=0 note=45 velocity=90 time=0>\n",
      "<message note_off channel=0 note=38 velocity=0 time=3072>\n",
      "<message note_off channel=0 note=42 velocity=0 time=0>\n",
      "<message note_off channel=0 note=45 velocity=0 time=0>\n",
      "<message note_on channel=0 note=40 velocity=90 time=0>\n",
      "<message note_on channel=0 note=43 velocity=90 time=0>\n",
      "<message note_on channel=0 note=47 velocity=90 time=0>\n",
      "<message note_off channel=0 note=40 velocity=0 time=2048>\n",
      "<message note_off channel=0 note=43 velocity=0 time=0>\n",
      "<message note_off channel=0 note=47 velocity=0 time=0>\n",
      "<message note_on channel=0 note=45 velocity=90 time=0>\n",
      "<message note_on channel=0 note=49 velocity=90 time=0>\n",
      "<message note_on channel=0 note=52 velocity=90 time=0>\n",
      "<message note_off channel=0 note=45 velocity=0 time=1024>\n",
      "<message note_off channel=0 note=49 velocity=0 time=0>\n",
      "<message note_off channel=0 note=52 velocity=0 time=0>\n",
      "<message note_on channel=0 note=38 velocity=90 time=0>\n",
      "<message note_on channel=0 note=42 velocity=90 time=0>\n",
      "<message note_on channel=0 note=45 velocity=90 time=0>\n",
      "<message note_off channel=0 note=38 velocity=0 time=3072>\n",
      "<message note_off channel=0 note=42 velocity=0 time=0>\n",
      "<message note_off channel=0 note=45 velocity=0 time=0>\n",
      "<message note_on channel=0 note=38 velocity=90 time=0>\n",
      "<message note_on channel=0 note=42 velocity=90 time=0>\n",
      "<message note_on channel=0 note=45 velocity=90 time=0>\n",
      "<message note_off channel=0 note=38 velocity=0 time=3072>\n",
      "<message note_off channel=0 note=42 velocity=0 time=0>\n",
      "<message note_off channel=0 note=45 velocity=0 time=0>\n",
      "<message note_on channel=0 note=45 velocity=90 time=0>\n",
      "<message note_on channel=0 note=49 velocity=90 time=0>\n",
      "<message note_on channel=0 note=52 velocity=90 time=0>\n",
      "<message note_off channel=0 note=45 velocity=0 time=3072>\n",
      "<message note_off channel=0 note=49 velocity=0 time=0>\n",
      "<message note_off channel=0 note=52 velocity=0 time=0>\n",
      "<message note_on channel=0 note=47 velocity=90 time=0>\n",
      "<message note_on channel=0 note=50 velocity=90 time=0>\n",
      "<message note_on channel=0 note=54 velocity=90 time=0>\n",
      "<message note_off channel=0 note=47 velocity=0 time=3072>\n",
      "<message note_off channel=0 note=50 velocity=0 time=0>\n",
      "<message note_off channel=0 note=54 velocity=0 time=0>\n",
      "<message note_on channel=0 note=45 velocity=90 time=0>\n",
      "<message note_on channel=0 note=49 velocity=90 time=0>\n",
      "<message note_on channel=0 note=52 velocity=90 time=0>\n",
      "<message note_on channel=0 note=55 velocity=90 time=0>\n",
      "<message note_off channel=0 note=45 velocity=0 time=3072>\n",
      "<message note_off channel=0 note=49 velocity=0 time=0>\n",
      "<message note_off channel=0 note=52 velocity=0 time=0>\n",
      "<message note_off channel=0 note=55 velocity=0 time=0>\n",
      "<message note_on channel=0 note=38 velocity=90 time=0>\n",
      "<message note_on channel=0 note=42 velocity=90 time=0>\n",
      "<message note_on channel=0 note=45 velocity=90 time=0>\n",
      "<message note_off channel=0 note=38 velocity=0 time=3072>\n",
      "<message note_off channel=0 note=42 velocity=0 time=0>\n",
      "<message note_off channel=0 note=45 velocity=0 time=0>\n",
      "<message note_on channel=0 note=45 velocity=90 time=0>\n",
      "<message note_on channel=0 note=49 velocity=90 time=0>\n",
      "<message note_on channel=0 note=52 velocity=90 time=0>\n",
      "<message note_off channel=0 note=45 velocity=0 time=3072>\n",
      "<message note_off channel=0 note=49 velocity=0 time=0>\n",
      "<message note_off channel=0 note=52 velocity=0 time=0>\n",
      "<message note_on channel=0 note=40 velocity=90 time=0>\n",
      "<message note_on channel=0 note=44 velocity=90 time=0>\n",
      "<message note_on channel=0 note=47 velocity=90 time=0>\n",
      "<message note_on channel=0 note=50 velocity=90 time=0>\n",
      "<message note_off channel=0 note=40 velocity=0 time=3072>\n",
      "<message note_off channel=0 note=44 velocity=0 time=0>\n",
      "<message note_off channel=0 note=47 velocity=0 time=0>\n",
      "<message note_off channel=0 note=50 velocity=0 time=0>\n",
      "<message note_on channel=0 note=45 velocity=90 time=0>\n",
      "<message note_on channel=0 note=49 velocity=90 time=0>\n",
      "<message note_on channel=0 note=52 velocity=90 time=0>\n",
      "<message note_off channel=0 note=45 velocity=0 time=3072>\n",
      "<message note_off channel=0 note=49 velocity=0 time=0>\n",
      "<message note_off channel=0 note=52 velocity=0 time=0>\n",
      "<message note_on channel=0 note=43 velocity=90 time=0>\n",
      "<message note_on channel=0 note=47 velocity=90 time=0>\n",
      "<message note_on channel=0 note=50 velocity=90 time=0>\n",
      "<message note_off channel=0 note=43 velocity=0 time=3072>\n",
      "<message note_off channel=0 note=47 velocity=0 time=0>\n",
      "<message note_off channel=0 note=50 velocity=0 time=0>\n",
      "<message note_on channel=0 note=38 velocity=90 time=0>\n",
      "<message note_on channel=0 note=42 velocity=90 time=0>\n",
      "<message note_on channel=0 note=45 velocity=90 time=0>\n",
      "<message note_off channel=0 note=38 velocity=0 time=3072>\n",
      "<message note_off channel=0 note=42 velocity=0 time=0>\n",
      "<message note_off channel=0 note=45 velocity=0 time=0>\n",
      "<message note_on channel=0 note=45 velocity=90 time=0>\n",
      "<message note_on channel=0 note=49 velocity=90 time=0>\n",
      "<message note_on channel=0 note=52 velocity=90 time=0>\n",
      "<message note_off channel=0 note=45 velocity=0 time=3072>\n",
      "<message note_off channel=0 note=49 velocity=0 time=0>\n",
      "<message note_off channel=0 note=52 velocity=0 time=0>\n",
      "<message note_on channel=0 note=38 velocity=90 time=0>\n",
      "<message note_on channel=0 note=42 velocity=90 time=0>\n",
      "<message note_on channel=0 note=45 velocity=90 time=0>\n",
      "<message note_off channel=0 note=38 velocity=0 time=3072>\n",
      "<message note_off channel=0 note=42 velocity=0 time=0>\n",
      "<message note_off channel=0 note=45 velocity=0 time=0>\n",
      "<message note_on channel=0 note=38 velocity=90 time=0>\n",
      "<message note_on channel=0 note=42 velocity=90 time=0>\n",
      "<message note_on channel=0 note=45 velocity=90 time=0>\n",
      "<message note_off channel=0 note=38 velocity=0 time=3072>\n",
      "<message note_off channel=0 note=42 velocity=0 time=0>\n",
      "<message note_off channel=0 note=45 velocity=0 time=0>\n",
      "<message note_on channel=0 note=40 velocity=90 time=0>\n",
      "<message note_on channel=0 note=43 velocity=90 time=0>\n",
      "<message note_on channel=0 note=47 velocity=90 time=0>\n",
      "<message note_off channel=0 note=40 velocity=0 time=3072>\n",
      "<message note_off channel=0 note=43 velocity=0 time=0>\n",
      "<message note_off channel=0 note=47 velocity=0 time=0>\n",
      "<message note_on channel=0 note=45 velocity=90 time=0>\n",
      "<message note_on channel=0 note=49 velocity=90 time=0>\n",
      "<message note_on channel=0 note=52 velocity=90 time=0>\n",
      "<message note_on channel=0 note=55 velocity=90 time=0>\n",
      "<message note_off channel=0 note=45 velocity=0 time=3072>\n",
      "<message note_off channel=0 note=49 velocity=0 time=0>\n",
      "<message note_off channel=0 note=52 velocity=0 time=0>\n",
      "<message note_off channel=0 note=55 velocity=0 time=0>\n",
      "<message note_on channel=0 note=38 velocity=90 time=0>\n",
      "<message note_on channel=0 note=42 velocity=90 time=0>\n",
      "<message note_on channel=0 note=45 velocity=90 time=0>\n",
      "<message note_off channel=0 note=38 velocity=0 time=3072>\n",
      "<message note_off channel=0 note=42 velocity=0 time=0>\n",
      "<message note_off channel=0 note=45 velocity=0 time=0>\n",
      "<message note_on channel=0 note=38 velocity=90 time=0>\n",
      "<message note_on channel=0 note=42 velocity=90 time=0>\n",
      "<message note_on channel=0 note=45 velocity=90 time=0>\n",
      "<message note_off channel=0 note=38 velocity=0 time=3072>\n",
      "<message note_off channel=0 note=42 velocity=0 time=0>\n",
      "<message note_off channel=0 note=45 velocity=0 time=0>\n",
      "<message note_on channel=0 note=45 velocity=90 time=0>\n",
      "<message note_on channel=0 note=49 velocity=90 time=0>\n",
      "<message note_on channel=0 note=52 velocity=90 time=0>\n",
      "<message note_off channel=0 note=45 velocity=0 time=3072>\n",
      "<message note_off channel=0 note=49 velocity=0 time=0>\n",
      "<message note_off channel=0 note=52 velocity=0 time=0>\n",
      "<message note_on channel=0 note=47 velocity=90 time=0>\n",
      "<message note_on channel=0 note=50 velocity=90 time=0>\n",
      "<message note_on channel=0 note=54 velocity=90 time=0>\n",
      "<message note_off channel=0 note=47 velocity=0 time=3072>\n",
      "<message note_off channel=0 note=50 velocity=0 time=0>\n",
      "<message note_off channel=0 note=54 velocity=0 time=0>\n",
      "<message note_on channel=0 note=45 velocity=90 time=0>\n",
      "<message note_on channel=0 note=49 velocity=90 time=0>\n",
      "<message note_on channel=0 note=52 velocity=90 time=0>\n",
      "<message note_on channel=0 note=55 velocity=90 time=0>\n",
      "<message note_off channel=0 note=45 velocity=0 time=3072>\n",
      "<message note_off channel=0 note=49 velocity=0 time=0>\n",
      "<message note_off channel=0 note=52 velocity=0 time=0>\n",
      "<message note_off channel=0 note=55 velocity=0 time=0>\n",
      "<message note_on channel=0 note=38 velocity=90 time=0>\n",
      "<message note_on channel=0 note=42 velocity=90 time=0>\n",
      "<message note_on channel=0 note=45 velocity=90 time=0>\n",
      "<message note_off channel=0 note=38 velocity=0 time=3072>\n",
      "<message note_off channel=0 note=42 velocity=0 time=0>\n",
      "<message note_off channel=0 note=45 velocity=0 time=0>\n",
      "<message note_on channel=0 note=45 velocity=90 time=0>\n",
      "<message note_on channel=0 note=49 velocity=90 time=0>\n",
      "<message note_on channel=0 note=52 velocity=90 time=0>\n",
      "<message note_off channel=0 note=45 velocity=0 time=3072>\n",
      "<message note_off channel=0 note=49 velocity=0 time=0>\n",
      "<message note_off channel=0 note=52 velocity=0 time=0>\n",
      "<message note_on channel=0 note=40 velocity=90 time=0>\n",
      "<message note_on channel=0 note=44 velocity=90 time=0>\n",
      "<message note_on channel=0 note=47 velocity=90 time=0>\n",
      "<message note_on channel=0 note=50 velocity=90 time=0>\n",
      "<message note_off channel=0 note=40 velocity=0 time=3072>\n",
      "<message note_off channel=0 note=44 velocity=0 time=0>\n",
      "<message note_off channel=0 note=47 velocity=0 time=0>\n",
      "<message note_off channel=0 note=50 velocity=0 time=0>\n",
      "<message note_on channel=0 note=45 velocity=90 time=0>\n",
      "<message note_on channel=0 note=49 velocity=90 time=0>\n",
      "<message note_on channel=0 note=52 velocity=90 time=0>\n",
      "<message note_off channel=0 note=45 velocity=0 time=3072>\n",
      "<message note_off channel=0 note=49 velocity=0 time=0>\n",
      "<message note_off channel=0 note=52 velocity=0 time=0>\n",
      "<message note_on channel=0 note=43 velocity=90 time=0>\n",
      "<message note_on channel=0 note=47 velocity=90 time=0>\n",
      "<message note_on channel=0 note=50 velocity=90 time=0>\n",
      "<message note_off channel=0 note=43 velocity=0 time=3072>\n",
      "<message note_off channel=0 note=47 velocity=0 time=0>\n",
      "<message note_off channel=0 note=50 velocity=0 time=0>\n",
      "<message note_on channel=0 note=38 velocity=90 time=0>\n",
      "<message note_on channel=0 note=42 velocity=90 time=0>\n",
      "<message note_on channel=0 note=45 velocity=90 time=0>\n",
      "<message note_off channel=0 note=38 velocity=0 time=3072>\n",
      "<message note_off channel=0 note=42 velocity=0 time=0>\n",
      "<message note_off channel=0 note=45 velocity=0 time=0>\n",
      "<message note_on channel=0 note=45 velocity=90 time=0>\n",
      "<message note_on channel=0 note=49 velocity=90 time=0>\n",
      "<message note_on channel=0 note=52 velocity=90 time=0>\n",
      "<message note_off channel=0 note=45 velocity=0 time=3072>\n",
      "<message note_off channel=0 note=49 velocity=0 time=0>\n",
      "<message note_off channel=0 note=52 velocity=0 time=0>\n",
      "<message note_on channel=0 note=38 velocity=90 time=0>\n",
      "<message note_on channel=0 note=42 velocity=90 time=0>\n",
      "<message note_on channel=0 note=45 velocity=90 time=0>\n",
      "<message note_off channel=0 note=38 velocity=0 time=3072>\n",
      "<message note_off channel=0 note=42 velocity=0 time=0>\n",
      "<message note_off channel=0 note=45 velocity=0 time=0>\n",
      "<message note_on channel=0 note=38 velocity=90 time=0>\n",
      "<message note_on channel=0 note=42 velocity=90 time=0>\n",
      "<message note_on channel=0 note=45 velocity=90 time=0>\n",
      "<message note_off channel=0 note=38 velocity=0 time=3072>\n",
      "<message note_off channel=0 note=42 velocity=0 time=0>\n",
      "<message note_off channel=0 note=45 velocity=0 time=0>\n",
      "<message note_on channel=0 note=40 velocity=90 time=0>\n",
      "<message note_on channel=0 note=43 velocity=90 time=0>\n",
      "<message note_on channel=0 note=47 velocity=90 time=0>\n",
      "<message note_off channel=0 note=40 velocity=0 time=3072>\n",
      "<message note_off channel=0 note=43 velocity=0 time=0>\n",
      "<message note_off channel=0 note=47 velocity=0 time=0>\n",
      "<message note_on channel=0 note=45 velocity=90 time=0>\n",
      "<message note_on channel=0 note=49 velocity=90 time=0>\n",
      "<message note_on channel=0 note=52 velocity=90 time=0>\n",
      "<message note_on channel=0 note=55 velocity=90 time=0>\n",
      "<message note_off channel=0 note=45 velocity=0 time=3072>\n",
      "<message note_off channel=0 note=49 velocity=0 time=0>\n",
      "<message note_off channel=0 note=52 velocity=0 time=0>\n",
      "<message note_off channel=0 note=55 velocity=0 time=0>\n",
      "<message note_on channel=0 note=38 velocity=90 time=0>\n",
      "<message note_on channel=0 note=42 velocity=90 time=0>\n",
      "<message note_on channel=0 note=45 velocity=90 time=0>\n",
      "<message note_off channel=0 note=38 velocity=0 time=3072>\n",
      "<message note_off channel=0 note=42 velocity=0 time=0>\n",
      "<message note_off channel=0 note=45 velocity=0 time=0>\n",
      "<meta message end_of_track time=0>\n"
     ]
    }
   ],
   "source": [
    "mid.print_tracks()"
   ]
  }
 ],
 "metadata": {
  "kernelspec": {
   "display_name": "Python 3",
   "language": "python",
   "name": "python3"
  },
  "language_info": {
   "codemirror_mode": {
    "name": "ipython",
    "version": 3
   },
   "file_extension": ".py",
   "mimetype": "text/x-python",
   "name": "python",
   "nbconvert_exporter": "python",
   "pygments_lexer": "ipython3",
   "version": "3.7.1"
  }
 },
 "nbformat": 4,
 "nbformat_minor": 2
}
